<?xml version="1.0" encoding="UTF-8" standalone="no"?>
<svg
   xmlns:dc="http://purl.org/dc/elements/1.1/"
   xmlns:cc="http://creativecommons.org/ns#"
   xmlns:rdf="http://www.w3.org/1999/02/22-rdf-syntax-ns#"
   xmlns:svg="http://www.w3.org/2000/svg"
   xmlns="http://www.w3.org/2000/svg"
   xmlns:sodipodi="http://sodipodi.sourceforge.net/DTD/sodipodi-0.dtd"
   xmlns:inkscape="http://www.inkscape.org/namespaces/inkscape"
   enable-background="new 0 0 570 200"
   version="1.1"
   viewBox="0 0 570 200"
   id="svg54"
   sodipodi:docname="क्रिकॉ-श्रेय-अव्या-स्थायी.svg"
   inkscape:version="0.92.5 (2060ec1f9f, 2020-04-08)">
  <metadata
     id="metadata60">
    <rdf:RDF>
      <cc:Work
         rdf:about="">
        <dc:format>image/svg+xml</dc:format>
        <dc:type
           rdf:resource="http://purl.org/dc/dcmitype/StillImage" />
      </cc:Work>
    </rdf:RDF>
  </metadata>
  <defs
     id="defs58" />
  <sodipodi:namedview
     pagecolor="#ffffff"
     bordercolor="#666666"
     borderopacity="1"
     objecttolerance="10"
     gridtolerance="10"
     guidetolerance="10"
     inkscape:pageopacity="0"
     inkscape:pageshadow="2"
     inkscape:window-width="1366"
     inkscape:window-height="708"
     id="namedview56"
     showgrid="false"
     inkscape:zoom="3.1261563"
     inkscape:cx="387.36213"
     inkscape:cy="125.59053"
     inkscape:window-x="0"
     inkscape:window-y="0"
     inkscape:window-maximized="1"
     inkscape:current-layer="svg54"
     showguides="true"
     inkscape:guide-bbox="true">
    <sodipodi:guide
       position="344.51253,184.89159"
       orientation="0,1"
       id="guide48"
       inkscape:locked="false" />
  </sodipodi:namedview>
  <style
     type="text/css"
     id="style2">.st0{fill:#ABB1AA;} .st1{fill:#FFFFFF;} .st2{fill:#FFFFFF;stroke:#000000;stroke-width:14;stroke-miterlimit:10;}</style>
  <path
     class="st0"
     d="m560 197.5h-550c-4.2 0-7.5-3.4-7.5-7.5v-180c0-4.2 3.4-7.5 7.5-7.5h550c4.2 0 7.5 3.4 7.5 7.5v180c0 4.1-3.4 7.5-7.5 7.5z"
     id="path4" />
  <path
     d="M560,0H10C4.5,0,0,4.5,0,10v180c0,5.5,4.5,10,10,10h550c5.5,0,10-4.5,10-10V10C570,4.5,565.5,0,560,0z M10,6h550 c2.2,0,4,1.8,4,4v130H6V10C6,7.8,7.8,6,10,6z"
     id="path6" />
  <circle
     class="st0"
     cx="98"
     cy="93"
     r="86.5"
     id="circle8" />
  <circle
     class="st1"
     cx="248"
     cy="70.6"
     r="50"
     id="circle22" />
  <path
     d="m248 25.6c24.8 0 45 20.2 45 45s-20.2 45-45 45-45-20.2-45-45 20.2-45 45-45m0-10c-30.4 0-55 24.6-55 55s24.6 55 55 55 55-24.6 55-55-24.6-55-55-55z"
     id="path24" />
  <circle
     cx="248"
     cy="43"
     r="7.9"
     id="circle26" />
  <path
     d="m261.2 57.9c0-0.8 0.1-2.3-1.1-3.5-1.1-1.1-2.7-1.1-3.5-1.1h-17.3c-0.8 0-2.3-0.1-3.5 1.1-1.1 1.1-1.1 2.7-1.1 3.5v21.9h5v26.4h16.4v-26.4h5c0.1 0 0.1-18.9 0.1-21.9z"
     id="path28" />
  <circle
     class="st2"
     cx="98"
     cy="93"
     r="68.5"
     id="circle30" />
  <path
     d="m78.8 106.3c-6.9 0-10.1-5.7-10.1-13.3s2.7-13.3 10.1-13.3c2 0 6 1.1 8.3 6.1l10-5.2c-4.2-7.7-11.5-10.8-19.9-10.8-12.2 0-22 8.6-22 23.3 0 14.9 9.2 23.3 22.4 23.3 8.5 0 15.7-4.7 19.7-11.7l-9.3-4.7c-2 4.8-5.2 6.3-9.2 6.3z"
     id="path32" />
  <path
     d="m131.4 99.8c-2.1 5-5.2 6.5-9.2 6.5-6.9 0-10.1-5.7-10.1-13.3s2.7-13.3 10.1-13.3c2 0 6 1.1 8.3 6.1l10-5.2c-4.2-7.7-11.5-10.8-19.9-10.8-12.2 0-22 8.6-22 23.3 0 14.9 9.2 23.3 22.4 23.3 8.5 0 15.7-4.7 19.7-11.7l-9.3-4.9z"
     id="path34" />
  <circle
     class="st1"
     cx="492"
     cy="70.6"
     r="50"
     id="circle36" />
  <path
     d="m492 25.6c24.8 0 45 20.2 45 45s-20.2 45-45 45-45-20.2-45-45 20.2-45 45-45m0-10c-30.4 0-55 24.6-55 55s24.6 55 55 55 55-24.6 55-55-24.6-55-55-55z"
     id="path38" />
  <rect
     x="471.4"
     y="74.3"
     width="41.2"
     height="10.3"
     id="rect40" />
  <rect
     x="471.4"
     y="55.4"
     width="41.2"
     height="10.3"
     id="rect42" />
  <circle
     class="st1"
     cx="370"
     cy="70.6"
     r="50"
     id="circle44" />
  <text
     xml:space="preserve"
     style="font-style:normal;font-variant:normal;font-weight:bold;font-stretch:normal;font-size:40px;line-height:1.25;font-family:'Baloo 2';-inkscape-font-specification:'Baloo 2 Bold';letter-spacing:0px;word-spacing:0px;fill:#ffffff;fill-opacity:1;stroke:none;"
     x="222.76239"
     y="184.44858"
     id="text3763"><tspan
       sodipodi:role="line"
       id="tspan3761"
       x="222.76239"
       y="184.44858">श्रेय</tspan></text>
  <text
     xml:space="preserve"
     style="font-style:normal;font-variant:normal;font-weight:bold;font-stretch:normal;font-size:40px;line-height:1.25;font-family:'Baloo 2';-inkscape-font-specification:'Baloo 2 Bold';letter-spacing:0px;word-spacing:0px;fill:#ffffff;fill-opacity:1;stroke:none"
     x="328.93689"
     y="184.37222"
     id="text3763-3"><tspan
       sodipodi:role="line"
       id="tspan3761-6"
       x="328.93689"
       y="184.37222">अव्या</tspan></text>
  <text
     xml:space="preserve"
     style="font-style:normal;font-weight:bold;font-size:40px;line-height:1.25;font-family:'Baloo 2';letter-spacing:0px;word-spacing:0px;fill:#000000;fill-opacity:1;stroke:none;-inkscape-font-specification:'Baloo 2 Bold';font-stretch:normal;font-variant:normal;"
     x="-266.14151"
     y="128.34651"
     id="text80"><tspan
       sodipodi:role="line"
       id="tspan78"
       x="-266.14151"
       y="163.73714" /></text>
  <text
     xml:space="preserve"
     style="font-style:normal;font-variant:normal;font-weight:bold;font-stretch:normal;font-size:40px;line-height:1.25;font-family:'Baloo 2';-inkscape-font-specification:'Baloo 2 Bold';letter-spacing:0px;word-spacing:0px;fill:#ffffff;fill-opacity:1;stroke:none"
     x="447.29251"
     y="184.46881"
     id="text3763-3-3"><tspan
       sodipodi:role="line"
       id="tspan3761-6-6"
       x="447.29251"
       y="184.46881">स्थायी</tspan></text>
  <circle
     class="st1"
     cx="371.07767"
     cy="70.28051"
     r="50"
     id="circle32"
     style="fill:#ffffff" />
  <path
     inkscape:connector-curvature="0"
     d="m 371.07747,25.280587 c 24.8,0 45,20.2 45,45 0,24.800003 -20.2,45.000033 -45,45.000033 -24.8,0 -45,-20.20003 -45,-45.000033 0,-24.8 20.2,-45 45,-45 m 0,-10 c -30.4,0 -55,24.6 -55,55 0,30.400033 24.6,55.000033 55,55.000033 30.4,0 55,-24.6 55,-55.000033 0,-30.4 -24.6,-55 -55,-55 z"
     id="path34-6" />
  <path
     inkscape:connector-curvature="0"
     d="m 421.07747,86.28059 -4.5,9.9 -95.5,-43.000003 4.5,-9.9 z"
     id="path36" />
  <text
     xml:space="preserve"
     style="font-style:normal;font-weight:normal;font-size:40px;line-height:1.25;font-family:sans-serif;letter-spacing:0px;word-spacing:0px;fill:#000000;fill-opacity:1;stroke:none"
     x="341.8385"
     y="107.58519"
     id="text28"><tspan
       sodipodi:role="line"
       id="tspan26"
       x="341.8385"
       y="107.58519"
       style="font-size:96px">₹</tspan></text>
</svg>
