<?xml version="1.0" encoding="UTF-8" standalone="no"?>
<!-- Generator: Adobe Illustrator 13.0.2, SVG Export Plug-In . SVG Version: 6.00 Build 14948)  -->

<svg
   xmlns:dc="http://purl.org/dc/elements/1.1/"
   xmlns:cc="http://creativecommons.org/ns#"
   xmlns:rdf="http://www.w3.org/1999/02/22-rdf-syntax-ns#"
   xmlns:svg="http://www.w3.org/2000/svg"
   xmlns="http://www.w3.org/2000/svg"
   xmlns:sodipodi="http://sodipodi.sourceforge.net/DTD/sodipodi-0.dtd"
   xmlns:inkscape="http://www.inkscape.org/namespaces/inkscape"
   version="1.1"
   id="Layer_1"
   x="0px"
   y="0px"
   width="80px"
   height="15px"
   viewBox="0 0 80 15"
   enable-background="new 0 0 80 15"
   xml:space="preserve"
   sodipodi:docname="cc-zero-mr.svg"
   inkscape:version="0.92.5 (2060ec1f9f, 2020-04-08)"><metadata
   id="metadata50"><rdf:RDF><cc:Work
       rdf:about=""><dc:format>image/svg+xml</dc:format><dc:type
         rdf:resource="http://purl.org/dc/dcmitype/StillImage" /></cc:Work></rdf:RDF></metadata><defs
   id="defs48" /><sodipodi:namedview
   pagecolor="#ffffff"
   bordercolor="#666666"
   borderopacity="1"
   objecttolerance="10"
   gridtolerance="10"
   guidetolerance="10"
   inkscape:pageopacity="0"
   inkscape:pageshadow="2"
   inkscape:window-width="1366"
   inkscape:window-height="708"
   id="namedview46"
   showgrid="false"
   inkscape:zoom="3.9375"
   inkscape:cx="40"
   inkscape:cy="7.5"
   inkscape:window-x="0"
   inkscape:window-y="0"
   inkscape:window-maximized="1"
   inkscape:current-layer="g43" />
<g
   id="g43">
	<g
   id="g4">
		<rect
   fill="#FFFFFF"
   width="80"
   height="15"
   id="rect2" />
	</g>
	<path
   d="M22.797,2C23.8,3.595,24.39,5.477,24.39,7.501c0,2.023-0.589,3.904-1.592,5.499H80V2H22.797z"
   id="path6" />
	<g
   id="g11">
		<path
   id="text2809_5_"
   d="M12.42,2.031c-3.137,0-3.926,2.959-3.926,5.469s0.787,5.469,3.926,5.469    c3.137,0,3.924-2.959,3.924-5.469S15.557,2.031,12.42,2.031z M12.42,4.094c0.127,0,0.242,0.02,0.352,0.047    c0.227,0.193,0.336,0.463,0.121,0.838l-2.09,3.838C10.738,8.33,10.729,7.855,10.729,7.5C10.729,6.395,10.807,4.094,12.42,4.094z     M13.982,5.863c0.111,0.588,0.127,1.203,0.127,1.637c0,1.105-0.076,3.406-1.689,3.406c-0.127,0-0.244-0.012-0.354-0.039    c-0.02-0.006-0.039-0.014-0.061-0.021c-0.031-0.01-0.066-0.02-0.098-0.031c-0.359-0.154-0.586-0.43-0.26-0.92L13.982,5.863z" />
		<path
   d="M21.229,3.848c-0.465-1.152-1.143-2.172-2.035-3.066C18.907,0.496,18.607,0.241,18.302,0h-3.708    c1.248,0.348,2.367,1.009,3.354,1.998c0.736,0.736,1.299,1.576,1.684,2.516s0.578,1.936,0.578,2.986    c0,2.184-0.746,3.994-2.227,5.441c-0.771,0.746-1.635,1.32-2.596,1.717c-0.344,0.143-0.694,0.251-1.046,0.342h3.892    c0.336-0.257,0.664-0.529,0.972-0.834c0.895-0.871,1.57-1.871,2.021-3c0.465-1.143,0.693-2.363,0.693-3.666    C21.92,6.211,21.691,4.99,21.229,3.848z M6.957,12.975c-0.746-0.746-1.322-1.59-1.729-2.527c-0.396-0.951-0.6-1.93-0.6-2.947    c0-1.029,0.203-2.016,0.6-2.955c0.406-0.949,0.982-1.803,1.729-2.561C7.916,1.004,9.021,0.346,10.268,0H6.58    C6.289,0.235,6.004,0.484,5.732,0.762C4.816,1.676,4.117,2.721,3.631,3.887C3.156,5.041,2.92,6.244,2.92,7.5    c0,1.268,0.236,2.471,0.711,3.613s1.164,2.17,2.068,3.086C5.994,14.49,6.305,14.752,6.623,15h3.88    c-0.345-0.088-0.686-0.191-1.019-0.328C8.547,14.277,7.705,13.711,6.957,12.975z"
   id="path9" />
	</g>
	<g
   id="g15">
		<path
   d="M80,0v15H0V0H80 M79.25,0.75H0.75v13.5h78.5V0.75L79.25,0.75z"
   id="path13" />
	</g>
	
<text
   xml:space="preserve"
   style="font-style:normal;font-variant:normal;font-weight:600;font-stretch:normal;font-size:40px;line-height:1.25;font-family:'Baloo 2';-inkscape-font-specification:'Baloo 2 Semi-Bold';letter-spacing:0px;word-spacing:0px;fill:#000000;fill-opacity:1;stroke:none;stroke-width:1.00000012"
   x="26.171385"
   y="9.3888893"
   id="text29"><tspan
     sodipodi:role="line"
     id="tspan27"
     x="26.171385"
     y="9.3888893"
     style="font-style:normal;font-variant:normal;font-weight:600;font-stretch:normal;font-size:8.00000095px;font-family:'Baloo 2';-inkscape-font-specification:'Baloo 2 Semi-Bold';fill:#ffffff;stroke-width:1.00000012">शून्य परवाना</tspan></text>
</g>
</svg>