<?xml version="1.0" encoding="UTF-8" standalone="no"?>
<svg
   xmlns:dc="http://purl.org/dc/elements/1.1/"
   xmlns:cc="http://creativecommons.org/ns#"
   xmlns:rdf="http://www.w3.org/1999/02/22-rdf-syntax-ns#"
   xmlns:svg="http://www.w3.org/2000/svg"
   xmlns="http://www.w3.org/2000/svg"
   xmlns:sodipodi="http://sodipodi.sourceforge.net/DTD/sodipodi-0.dtd"
   xmlns:inkscape="http://www.inkscape.org/namespaces/inkscape"
   enable-background="new 0 0 570 200"
   version="1.1"
   viewBox="0 0 570 200"
   id="svg30"
   sodipodi:docname="CC-BY.svg"
   inkscape:version="0.92.5 (2060ec1f9f, 2020-04-08)">
  <metadata
     id="metadata36">
    <rdf:RDF>
      <cc:Work
         rdf:about="">
        <dc:format>image/svg+xml</dc:format>
        <dc:type
           rdf:resource="http://purl.org/dc/dcmitype/StillImage" />
      </cc:Work>
    </rdf:RDF>
  </metadata>
  <defs
     id="defs34" />
  <sodipodi:namedview
     pagecolor="#ffffff"
     bordercolor="#666666"
     borderopacity="1"
     objecttolerance="10"
     gridtolerance="10"
     guidetolerance="10"
     inkscape:pageopacity="0"
     inkscape:pageshadow="2"
     inkscape:window-width="1366"
     inkscape:window-height="708"
     id="namedview32"
     showgrid="false"
     inkscape:zoom="0.78153905"
     inkscape:cx="321.19048"
     inkscape:cy="81.904762"
     inkscape:window-x="0"
     inkscape:window-y="0"
     inkscape:window-maximized="1"
     inkscape:current-layer="svg30" />
  <style
     type="text/css"
     id="style2">.st0{fill:#ABB1AA;} .st1{fill:#FFFFFF;} .st2{fill:#FFFFFF;stroke:#000000;stroke-width:14;stroke-miterlimit:10;}</style>
  <path
     class="st0"
     d="m560 197.5h-550c-4.2 0-7.5-3.4-7.5-7.5v-180c0-4.2 3.4-7.5 7.5-7.5h550c4.2 0 7.5 3.4 7.5 7.5v180c0 4.1-3.4 7.5-7.5 7.5z"
     id="path4"
     style="" />
  <path
     d="M560,0H10C4.5,0,0,4.5,0,10v180c0,5.5,4.5,10,10,10h550c5.5,0,10-4.5,10-10V10C570,4.5,565.5,0,560,0z M10,6h550 c2.2,0,4,1.8,4,4v130H6V10C6,7.8,7.8,6,10,6z"
     id="path6"
     style="" />
  <circle
     class="st0"
     cx="98"
     cy="93"
     r="86.5"
     id="circle8"
     style="" />
  <path
     d="m362.8 16.3h-1.4c-29.7 0.8-53.6 25.1-53.6 55 0 30.4 24.6 55 55 55s55-24.6 55-55-24.6-55-55-55zm0 100.5c-25.1 0-45.5-20.4-45.5-45.5 0-24.7 19.6-44.8 44.1-45.5h1.5c25.1 0 45.5 20.4 45.5 45.5s-20.5 45.5-45.6 45.5z"
     id="path10"
     style="" />
  <circle
     class="st1"
     cx="362.8"
     cy="71.3"
     r="50"
     id="circle16"
     style="" />
  <path
     d="m362.8 26.3c24.8 0 45 20.2 45 45s-20.2 45-45 45-45-20.2-45-45 20.2-45 45-45m0-10c-30.4 0-55 24.6-55 55s24.6 55 55 55 55-24.6 55-55-24.6-55-55-55z"
     id="path18"
     style="" />
  <circle
     cx="362.8"
     cy="43.6"
     r="7.9"
     id="circle20"
     style="" />
  <path
     d="m376 58.5c0-0.8 0.1-2.3-1.1-3.5-1.1-1.1-2.7-1.1-3.5-1.1h-17.3c-0.8 0-2.3-0.1-3.5 1.1-1.1 1.1-1.1 2.7-1.1 3.5v21.9h5v26.4h16.5v-26.4h5v-21.9z"
     id="path22"
     style="" />
  <circle
     class="st2"
     cx="98"
     cy="93"
     r="68.5"
     id="circle24"
     style="" />
  <path
     d="m78.8 106.3c-6.9 0-10.1-5.7-10.1-13.3s2.7-13.3 10.1-13.3c2 0 6 1.1 8.3 6.1l10-5.2c-4.2-7.7-11.5-10.8-19.9-10.8-12.2 0-22 8.6-22 23.3 0 14.9 9.2 23.3 22.4 23.3 8.5 0 15.7-4.7 19.7-11.7l-9.3-4.7c-2 4.8-5.2 6.3-9.2 6.3z"
     id="path26"
     style="" />
  <path
     d="m131.4 99.8c-2.1 5-5.2 6.5-9.2 6.5-6.9 0-10.1-5.7-10.1-13.3s2.7-13.3 10.1-13.3c2 0 6 1.1 8.3 6.1l10-5.2c-4.2-7.7-11.5-10.8-19.9-10.8-12.2 0-22 8.6-22 23.3 0 14.9 9.2 23.3 22.4 23.3 8.5 0 15.7-4.7 19.7-11.7l-9.3-4.9z"
     id="path28"
     style="" />
  <text
     xml:space="preserve"
     style="font-style:normal;font-variant:normal;font-weight:600;font-stretch:normal;font-size:40px;line-height:1.25;font-family:'Baloo 2';-inkscape-font-specification:'Baloo 2 Semi-Bold';letter-spacing:0px;word-spacing:0px;fill:#ffffff;fill-opacity:1;stroke:none"
     x="337.23596"
     y="182.97144"
     id="text3763"><tspan
       sodipodi:role="line"
       id="tspan3761"
       x="337.23596"
       y="182.97144">श्रेय</tspan></text>
</svg>
